# xmcd
#
# Track frame offsets: 
#        150
#        20755
#        40905
#        68175
#        102102
#        121461
#        138463
#        160380
#        190417
#        211584
#        245841
#
# Disc length: 3542 seconds
#
# Revision: 0
# Processed by: cddbd v1.5.2PL0 Copyright (c) Steve Scherf et al.
# Submitted via: ExactAudioCopy v1.0b3
#
DISCID=a00dd40b
DTITLE=Various Artist - African Beats
DYEAR=2012
DGENRE=Other
TTITLE0=Sufi Prayer Of Life
TTITLE1=Township Girl
TTITLE2=Chants Of Thanks For A Good Harvest
TTITLE3=Shona Karanga Burial Ritual
TTITLE4=Working Girl
TTITLE5=Tahtiyb
TTITLE6=Chants And Dance To Heal The Spirit
TTITLE7=River Traders Of The Limpopo River
TTITLE8=Ehan Marriage Ritual And Dance
TTITLE9=Chants And Dances For Successful Hunting
TTITLE10=Mizzmaa Me Attaa
EXTD=
EXTT0=
EXTT1=
EXTT2=
EXTT3=
EXTT4=
EXTT5=
EXTT6=
EXTT7=
EXTT8=
EXTT9=
EXTT10=
PLAYORDER=
